<svg xmlns="http://www.w3.org/2000/svg" fill="#044343" height="48" viewBox="0 -960 960 960" width="48"><path d="M580.5-202.5q-5.5 4-11 .7t-5.5-11.85q0-2.85 2-4.6 2-1.75 4-2.75 82.5-32.5 131.25-103T750-481.5q0-86-48.5-156.5T570-741q-3-1-4.5-3.677-1.5-2.676-1.5-6.058 0-4.765 5.5-8.765 5.5-4 11-2Q666-724 719-649.219T772-481.5q0 93.938-53 168.719Q666-238 580.5-202.5ZM215-412q-12.25 0-19.625-7.375T188-439v-82q0-12.25 7.375-19.625T215-548h103l80-80q13.5-13.5 29.75-5.844T444-610.5v259q0 17.688-16.25 25.344Q411.5-318.5 398-332l-80-80H215Zm343 58v-254q30 19.5 48 54.25T624-480q0 40-18 73t-48 53ZM422-619.5 328.5-526H210v92h118.5l93.5 92.5v-278ZM324.5-480Z"/></svg>