<svg xmlns="http://www.w3.org/2000/svg" fill="#044343" height="48" viewBox="0 -960 960 960" width="48"><path d="M756-112.5 641.5-227q-12.158 6.534-24.066 13.379T592-202.5q-5.5 4-10.5.796-5-3.204-5-11.796 0-3.141 1.685-4.727 1.685-1.585 4.315-2.773 10.433-4.571 21.433-9.821T626.5-243l-170-170v61.554q0 19.946-16.75 26.446t-29.25-7l-80-80h-103q-12.725 0-19.863-7.138Q200.5-426.275 200.5-439v-82q0-12.725 7.191-19.862Q214.883-548 227.688-548H320.5L124.031-745.469Q121.5-747.5 121-752.5t3-9q3.5-2 8-2t8 2l633 633q2.5 3 2.5 8t-2.5 8q-3.5 4-8.5 4t-8.5-4Zm-164-649q85.5 37.5 139 112.223 53.5 74.722 53.5 167.777 0 52.5-17.741 99.5T718.5-295L703-310.5q29-35.5 44.25-79.096 15.25-43.596 15.25-91.904 0-87-49-158T582.5-741q-3.5-1-4.75-3.474t-1.25-6.026q0-5 5-9t10.5-2ZM388.5-480Zm226 81-38-38v-169q29.5 22 44.75 55.75T636.5-480q0 21.5-5.5 42.267-5.5 20.768-16.5 38.733Zm-158-158-58-59 12-12q12.5-13.5 29.25-5.875T456.5-610.5v53.5Zm-22 216.5V-434l-92-92h-120v92H340l94.5 93.5Z"/></svg>